{"title":"Singam (2010) 480p Bluray Rip HINDI DUBBED XVID Mp3 By BarbieGir","uid":8323036,"size":1430220086,"categoryP":"video","categoryS":"movies","magnet":"?xt=urn:btih:a28aa421b1fe5a9341dbb761fa3ee06aab023c58&amp;dn=Singam+%282010%29+480p+Bluray+Rip+HINDI+DUBBED+XVID+Mp3+By+BarbieGir&amp;tr=udp%3A%2F%2Ftracker.openbittorrent.com%3A80&amp;tr=udp%3A%2F%2Fopen.demonii.com%3A1337&amp;tr=udp%3A%2F%2Ftracker.coppersurfer.tk%3A6969&amp;tr=udp%3A%2F%2Fexodus.desync.com%3A6969","seeders":1,"leechers":1,"uploader":"arsenal_rocks","files":2,"time":1364734892,"description":"[CENTER]****ALL CREDITS GOES TO DDH~Barbiegirl *******[/CENTER]\n\n[center][img]http://s21.postimg.org/g28lhivon/url.jpg[/img]\n\n\n\n\n\n[img]http://s12.postimg.org/fzowmq53t/53aa6_portable_5bb600851216dcdf9853d9752713496b.gif[/img]\n\n\n[code]\n\nFormat                                   : AVI\nFormat/Info                              : Audio Video Interleave\nFile size                                : 1.32 GiB\nDuration                                 : 2h 34mn\nOverall bit rate                         : 1 229 Kbps\n\nVideo\nID                                       : 0\nFormat                                   : MPEG-4 Visual\nFormat profile                           : Advanced Simple@L5\nFormat settings, BVOP                    : 2\nFormat settings, QPel                    : No\nFormat settings, GMC                     : No warppoints\nFormat settings, Matrix                  : Default (H.263)\nCodec ID                                 : XVID\nCodec ID/Hint                            : XviD\nDuration                                 : 2h 34mn\nBit rate                                 : 1 100 Kbps\nWidth                                    : 704 pixels\nHeight                                   : 304 pixels\nDisplay aspect ratio                     : 2.35:1\nFrame rate                               : 23.976 fps\nColor space                              : YUV\nChroma subsampling                       : 4:2:0\nBit depth                                : 8 bits\nScan type                                : Progressive\nCompression mode                         : Lossy\nBits/(Pixel*Frame)                       : 0.214\nStream size                              : 1.18 GiB (89%)\nWriting library                          : XviD 64\n\nAudio\nID                                       : 1\nFormat                                   : MPEG Audio\nFormat version                           : Version 1\nFormat profile                           : Layer 3\nMode                                     : Joint stereo\nMode extension                           : MS Stereo\nCodec ID                                 : 55\nCodec ID/Hint                            : MP3\nDuration                                 : 1h 28mn\nSource duration                          : 2h 34mn\nBit rate mode                            : Constant\nBit rate                                 : 32.0 Kbps\nChannel(s)                               : 2 channels\nSampling rate                            : 48.0 KHz\nCompression mode                         : Lossy\nStream size                              : 129 MiB (10%)\nAlignment                                : Aligned on interleaves\nInterleave, duration                     : 24 ms (0.58 video frame)\nWriting library                          : LAME3.98.2\n\n\n\n[/code]\n\n\n\n\n\n\n[img]http://s12.postimg.org/rdbfxxfmh/screenshots_logo.png[/img]\n\n\n[IMG]http://s23.postimg.org/ybu2jt2pn/Singam_2010_480p_Bluray_Rip_HINDI_DUBBED_XVID.jpg[/IMG]\n\n[/center]","torrent":{"xt":"urn:btih:a28aa421b1fe5a9341dbb761fa3ee06aab023c58","amp;dn":"Singam+%282010%29+480p+Bluray+Rip+HINDI+DUBBED+XVID+Mp3+By+BarbieGir","amp;tr":["udp%3A%2F%2Ftracker.openbittorrent.com%3A80","udp%3A%2F%2Fopen.demonii.com%3A1337","udp%3A%2F%2Ftracker.coppersurfer.tk%3A6969","udp%3A%2F%2Fexodus.desync.com%3A6969"],"infoHash":"a28aa421b1fe5a9341dbb761fa3ee06aab023c58","infoHashBuffer":{"type":"Buffer","data":[162,138,164,33,177,254,90,147,65,219,183,97,250,62,224,106,171,2,60,88]},"announce":[],"urlList":[]}}